<svg xmlns="http://www.w3.org/2000/svg" viewBox="0 0 24 24"><path fill="#ff00bf" d="m4.38 15.88.13.14-.16.08a3 3 0 0 1-1.28.29C1.6 16.39 0 15.29 0 12.88V4.1h3.51v9.36q0 1.44.87 2.42M24 11.12V7.61h-1.25a4.7 4.7 0 0 0-6.34-3.48 4.9 4.9 0 0 0-2.95 4.28v7.98h.16A3.5 3.5 0 0 0 16 15.3a3.5 3.5 0 0 0 .98-2.43h1.46v-3.5h-1.46V8.4c0-.37.2-.73.52-.9.9-.5 1.82.13 1.82.99v3.22a4.7 4.7 0 0 0 1.35 3.33 4.7 4.7 0 0 0 3.18 1.35H24v-3.51a1.17 1.17 0 0 1-1.17-1.17v-.59zM9.07 12.3a.59.59 0 0 1-1.17 0V7.61H4.4v5.85a2.93 2.93 0 0 0 4.83 2.23q-.1.65-.69 1.04-.57.35-1.4.35a4 4 0 0 1-1.65-.38s-.1-.04-.21-.1v3.11a7 7 0 0 0 2.47.48c1.3 0 2.5-.4 3.37-1.15a4.5 4.5 0 0 0 1.48-3.53v-7.9H9.07z"/></svg>